<svg version="1.1" id="Layer_1" xmlns="http://www.w3.org/2000/svg" xmlns:xlink="http://www.w3.org/1999/xlink" x="0px" y="0px"
	 width="100%" viewBox="0 0 512 512" enable-background="new 0 0 512 512" xml:space="preserve">
<path fill="#5A0141" opacity="1.000000" stroke="none" 
	d="
M1.000002,476.000000 
	C1.000000,330.309265 1.000000,184.618515 1.366875,38.464272 
	C2.226797,37.197849 2.874443,36.451160 3.189951,35.583668 
	C8.915794,19.840435 19.589554,9.066086 35.334957,3.277299 
	C36.363380,2.899201 37.118011,1.776398 38.000000,1.000000 
	C183.690750,1.000000 329.381500,1.000000 475.536194,1.366809 
	C476.803070,2.226817 477.549683,2.874709 478.417236,3.190268 
	C494.160004,8.916802 504.934723,19.590286 510.723206,35.335907 
	C511.101166,36.363995 512.223755,37.118336 513.000000,38.000008 
	C513.000000,183.690750 513.000000,329.381500 512.633179,475.536194 
	C511.773193,476.803040 511.125336,477.549683 510.809753,478.417206 
	C505.083130,494.159943 494.409821,504.934784 478.664062,510.723083 
	C477.635956,511.101013 476.881653,512.223755 476.000000,513.000000 
	C330.309265,513.000000 184.618515,513.000000 38.464279,512.633179 
	C37.197876,511.773254 36.451191,511.125641 35.583710,510.810120 
	C19.840542,505.084167 9.066101,494.410461 3.277312,478.665039 
	C2.899225,477.636627 1.776402,476.881989 1.000002,476.000000 
M233.928131,269.500000 
	C233.928131,311.602448 233.928131,353.704895 233.928131,395.821381 
	C219.114182,399.301392 204.752563,402.675140 190.608643,405.997742 
	C190.608643,411.651764 190.608643,416.756622 190.608643,421.925415 
	C235.166275,421.925415 279.413818,421.925415 323.866272,421.925415 
	C323.866272,416.577698 323.866272,411.467621 323.866272,405.987793 
	C309.336639,402.737183 294.790161,399.482819 280.403900,396.264313 
	C280.403900,303.433685 280.403900,211.045990 280.403900,118.581276 
	C295.061646,115.193184 309.422455,111.873726 323.758606,108.559967 
	C323.758606,102.979149 323.758606,97.743141 323.758606,92.455185 
	C279.218536,92.455185 234.992355,92.455185 190.619141,92.455185 
	C190.619141,97.983719 190.619141,103.221115 190.619141,108.527885 
	C205.208450,112.117744 219.514786,115.637978 233.928131,119.184540 
	C233.928131,169.221344 233.928131,218.860672 233.928131,269.500000 
z"/>
<path fill="#000000" opacity="1.000000" stroke="none" 
	d="
M37.531342,1.000000 
	C37.118011,1.776398 36.363380,2.899201 35.334957,3.277299 
	C19.589554,9.066086 8.915794,19.840435 3.189951,35.583668 
	C2.874443,36.451160 2.226797,37.197849 1.366875,38.000385 
	C1.000000,25.740049 1.000000,13.480098 1.000000,1.000000 
	C13.020000,1.000000 25.041342,1.000000 37.531342,1.000000 
z"/>
<path fill="#000000" opacity="1.000000" stroke="none" 
	d="
M513.000000,37.531349 
	C512.223755,37.118336 511.101166,36.363995 510.723206,35.335907 
	C504.934723,19.590286 494.160004,8.916802 478.417236,3.190268 
	C477.549683,2.874709 476.803070,2.226817 476.000061,1.366809 
	C488.259949,1.000000 500.519897,1.000000 513.000000,1.000000 
	C513.000000,13.020000 513.000000,25.041342 513.000000,37.531349 
z"/>
<path fill="#000000" opacity="1.000000" stroke="none" 
	d="
M1.000002,476.468658 
	C1.776402,476.881989 2.899225,477.636627 3.277312,478.665039 
	C9.066101,494.410461 19.840542,505.084167 35.583710,510.810120 
	C36.451191,511.125641 37.197876,511.773254 38.000393,512.633179 
	C25.740049,513.000000 13.480098,513.000000 1.000000,513.000000 
	C1.000000,500.980011 1.000000,488.958649 1.000002,476.468658 
z"/>
<path fill="#000000" opacity="1.000000" stroke="none" 
	d="
M476.468658,513.000000 
	C476.881653,512.223755 477.635956,511.101013 478.664062,510.723083 
	C494.409821,504.934784 505.083130,494.159943 510.809753,478.417206 
	C511.125336,477.549683 511.773193,476.803040 512.633179,476.000061 
	C513.000000,488.259949 513.000000,500.519897 513.000000,513.000000 
	C500.980011,513.000000 488.958649,513.000000 476.468658,513.000000 
z"/>
<path fill="#FEFEFE" opacity="1.000000" stroke="none" 
	d="
M233.928131,269.000000 
	C233.928131,218.860672 233.928131,169.221344 233.928131,119.184540 
	C219.514786,115.637978 205.208450,112.117744 190.619141,108.527885 
	C190.619141,103.221115 190.619141,97.983719 190.619141,92.455185 
	C234.992355,92.455185 279.218536,92.455185 323.758606,92.455185 
	C323.758606,97.743141 323.758606,102.979149 323.758606,108.559967 
	C309.422455,111.873726 295.061646,115.193184 280.403900,118.581276 
	C280.403900,211.045990 280.403900,303.433685 280.403900,396.264313 
	C294.790161,399.482819 309.336639,402.737183 323.866272,405.987793 
	C323.866272,411.467621 323.866272,416.577698 323.866272,421.925415 
	C279.413818,421.925415 235.166275,421.925415 190.608643,421.925415 
	C190.608643,416.756622 190.608643,411.651764 190.608643,405.997742 
	C204.752563,402.675140 219.114182,399.301392 233.928131,395.821381 
	C233.928131,353.704895 233.928131,311.602448 233.928131,269.000000 
z"/>
</svg>